<svg width="15" height="16" viewBox="0 0 15 16" fill="none" xmlns="http://www.w3.org/2000/svg">
<path d="M13.4213 7.4833H15.0002C15.0002 3.53313 11.9426 0.553955 7.88705 0.553955V2.09398C11.0939 2.09398 13.4213 4.36013 13.4213 7.4833Z" fill="#924DFF"/>
<path d="M7.89497 5.17343C9.55523 5.17343 10.2634 5.86404 10.2634 7.48316H11.8423C11.8423 5.0002 10.441 3.63361 7.89497 3.63361V5.17343ZM10.5965 9.36405C10.4448 9.22959 10.2455 9.15787 10.0406 9.16405C9.8357 9.17023 9.64128 9.25381 9.49839 9.39715L7.60918 11.2919C7.15444 11.2072 6.24023 10.9293 5.29917 10.0139C4.35812 9.09535 4.07312 8.20149 3.98865 7.7611L5.92996 5.91793C6.07713 5.77868 6.16297 5.58904 6.1693 5.38916C6.17564 5.18928 6.10198 4.99484 5.96391 4.84699L3.0468 1.71885C2.90868 1.57053 2.71671 1.48056 2.51166 1.46806C2.30661 1.45555 2.10464 1.52149 1.94865 1.65186L0.235486 3.08467C0.0989947 3.21826 0.0175275 3.39606 0.0065384 3.58434C-0.00530372 3.77681 -0.231093 8.33622 3.39417 11.8732C6.55681 14.9567 10.5184 15.1823 11.6094 15.1823C11.7689 15.1823 11.8668 15.1776 11.8929 15.1761C12.0859 15.1656 12.2681 15.0858 12.4044 14.9521L13.8729 13.2806C14.0067 13.1285 14.0744 12.9316 14.0617 12.7317C14.049 12.5317 13.9569 12.3444 13.805 12.2096L10.5965 9.36405Z" fill="#924DFF"/>
</svg>
